HIERARCHY
ROOT HipCenter
{
    OFFSET 0.0 0.0 -0.0
    CHANNELS 6 Xposition Yposition Zposition Zrotation Xrotation Yrotation
    JOINT Spine
    {
        OFFSET 0.0 12.242378234863281 0.0
        CHANNELS 3 Zrotation Xrotation Yrotation
        JOINT ShoulderCenter
        {
            OFFSET 0.0 34.95833206176758 0.0
            CHANNELS 3 Zrotation Xrotation Yrotation
            JOINT LeftShoulder
            {
                OFFSET 18.581157684326172 0.0 0.0
                CHANNELS 3 Zrotation Xrotation Yrotation
                JOINT LeftElbow
                {
                    OFFSET 29.718015670776367 0.0 0.0
                    CHANNELS 3 Zrotation Xrotation Yrotation
                    JOINT LeftWrist
                    {
                        OFFSET 30.156982421875 0.0 0.0
                        CHANNELS 3 Zrotation Xrotation Yrotation
                        JOINT LeftHand
                        {
                            OFFSET 4.085371971130371 0.0 0.0
                            CHANNELS 3 Zrotation Xrotation Yrotation
                            End Site
                            {
                                OFFSET 1.6341485977172852 0.0 0.0
                            }
                        }
                    }
                }
            }
            JOINT RightShoulder
            {
                OFFSET -18.581157684326172 0.0 0.0
                CHANNELS 3 Zrotation Xrotation Yrotation
                JOINT RightElbow
                {
                    OFFSET -29.718015670776367 0.0 0.0
                    CHANNELS 3 Zrotation Xrotation Yrotation
                    JOINT RightWrist
                    {
                        OFFSET -30.156982421875 0.0 0.0
                        CHANNELS 3 Zrotation Xrotation Yrotation
                        JOINT RightHand
                        {
                            OFFSET -4.085371971130371 0.0 0.0
                            CHANNELS 3 Zrotation Xrotation Yrotation
                            End Site
                            {
                                OFFSET -1.6341485977172852 0.0 0.0
                            }
                        }
                    }
                }
            }
            End Site
            {
                OFFSET 0.0 13.983333587646484 0.0
            }
        }
    }
    JOINT LeftHip
    {
        OFFSET 15.674623489379883 0.0 0.0
        CHANNELS 3 Zrotation Xrotation Yrotation
        JOINT LeftKnee
        {
            OFFSET 0.0 -41.611083984375 0.0
            CHANNELS 3 Zrotation Xrotation Yrotation
            JOINT LeftAnkle
            {
                OFFSET 0.0 -41.74882125854492 0.0
                CHANNELS 3 Zrotation Xrotation Yrotation
                JOINT LeftFoot
                {
                    OFFSET 0.0 -9.87154769897461 0.0
                    CHANNELS 3 Zrotation Xrotation Yrotation
                    End Site
                    {
                        OFFSET 0.0 0.0 3.9486193656921387
                    }
                }
            }
        }
    }
    JOINT RightHip
    {
        OFFSET -15.674623489379883 0.0 0.0
        CHANNELS 3 Zrotation Xrotation Yrotation
        JOINT RightKnee
        {
            OFFSET 0.0 -41.611083984375 0.0
            CHANNELS 3 Zrotation Xrotation Yrotation
            JOINT RightAnkle
            {
                OFFSET 0.0 -41.74882125854492 0.0
                CHANNELS 3 Zrotation Xrotation Yrotation
                JOINT RightFoot
                {
                    OFFSET 0.0 -9.87154769897461 0.0
                    CHANNELS 3 Zrotation Xrotation Yrotation
                    End Site
                    {
                        OFFSET 0.0 0.0 3.9486193656921387
                    }
                }
            }
        }
    }
}
MOTION
Frames: 7
Frame Time: 0.03333333333333333
27.200000762939453 -0.8999999761581421 7.100000381469727 -6.082333215268679 -2.333679909810868 90.91853942448428 2.2779312409453096 -3.4943861935579763 0.08424625027505381 4.1777114106628757e-08 -1.1803018998415092e-07 1.4476300058565899 116.36260571287417 -22.350444269930442 154.3713921641291 2.4677837087690836e-06 3.4525186211036244e-06 88.64283456363393 179.99999578392695 37.28511402439603 -109.84237695374259 0.0 0.0 0.0 -129.32598624071863 -31.89327780579603 -155.8400443943726 -2.145455910282355e-06 5.369444158780386e-07 -81.75804000179102 8.706448665072948e-06 71.8696280126052 -60.47117079067227 -6.3611093629270335e-15 0.0 0.0 -1.9293411731248298 -16.601520415191946 -12.112948054913272 4.878503137360004 29.804389260316096 -29.238512034351672 91.91703427353292 -55.975174603886835 137.74372128027878 1.5902773407317584e-15 -6.620859447075238e-32 -4.770832022195275e-15 5.191996854746626 -4.76615299446726 20.98449061247376 -1.1534295078104881 18.39450753402013 14.08281812147702 -96.73925131383604 -36.50277536031771 -147.40384168590532 -6.3611093629270335e-15 -4.770832022195275e-15 3.1805546814635164e-15
27.399999618530273 -0.800000011920929 7.0 -6.599915279759936 -2.820005582325254 90.64100383633495 2.941514816275661 -3.844324246169064 0.10306163225144689 2.4389945573198913e-08 -3.159244606159137e-08 1.0864538710343317 112.84867925936966 -22.342231307843814 152.59264744899633 2.1900199629394565e-06 3.388576904545189e-06 78.44105126485212 179.99999406027334 23.881395452266183 -110.05811930300109 0.0 0.0 -6.3611093629270335e-15 -128.13330791368554 -30.29729727927582 -155.6589871447725 2.867751905913027e-07 -3.269195143320129e-06 -73.38574448573362 -1.5373864070839605e-05 80.44387411409032 -55.63311914473731 -6.361109362927035e-15 -6.361109362927035e-15 -3.531125038440127e-31 -1.3748329375311288 -16.998149059484025 -11.89027085950515 4.724904107318694 29.655661731055332 -29.19256678058069 91.59371321839652 -55.957826882865575 137.55618415668562 -3.1805546814635176e-15 2.2069531490250793e-31 -7.951386703658793e-15 5.558207926114759 -5.262377096094549 20.892504835710554 -1.1508854196188762 18.335934205735263 14.27832708198697 -96.75732597552395 -36.708371957886754 -147.71526105389225 0.0 1.5902773407317588e-15 0.0
27.599998474121094 -0.800000011920929 6.800000190734863 -7.066738308312789 -2.348292741934346 90.36494622313937 2.157639301310924 -4.128082682592132 0.08618323361163407 -8.123898508692295e-08 1.0281045569713813e-07 0.8793358618296212 111.16042649650794 -18.293289934671453 151.34265040548638 4.442692951141432e-06 -4.769692518389545e-06 68.69672861848542 -179.99999873012302 11.675834128223116 -112.27105644693228 3.1805546814635164e-15 8.827812596100317e-32 3.1805546814635164e-15 -127.4760043632118 -27.32414314423939 -155.61213337755348 -3.1258544699984146e-06 -6.184376766509123e-06 -65.26034066899626 3.012756398873949e-05 84.35195379147346 -41.86833965712308 2.648343778830095e-31 -4.770832022195275e-15 6.3611093629270335e-15 -1.9033219296488715 -17.170979224689663 -12.419080072413667 4.295027511976186 29.60315310835671 -28.632545349786838 91.87078359111884 -55.55113887528613 137.5308726678296 0.0 0.0 6.3611093629270335e-15 4.971255627606049 -5.559456643761852 21.317196342698992 -0.97228014049805 18.277984382328356 14.188024517069094 -95.9271246406292 -36.07295332240898 -147.28122925316785 0.0 0.0 0.0
27.900001525878906 -0.800000011920929 6.599999904632568 -7.066720958591928 -2.348293246445098 90.10053615385819 2.176687178003443 -4.1180601506188115 0.08498443043978267 6.766889208385418e-08 6.72619111172327e-08 0.6711593637539726 110.95350869545703 -11.128192780557761 150.52031504537536 -1.7053866116698868e-06 -1.275905241273669e-06 60.33760919953332 -179.99999848879028 -2.868695220630387 -112.85318903057941 -3.1805546814635168e-15 6.3611093629270335e-15 -3.1805546814635168e-15 -127.61753950959363 -23.478170998464595 -155.89020227832933 -3.040329878684758e-06 3.909547793607715e-07 -57.65560492384684 -0.00011907910389862472 87.84575182594712 -20.7123657072442 -6.361109362927033e-15 -6.361109362927033e-15 3.180554681463516e-15 -2.1027491381466565 -16.904726946441386 -12.424748163027376 4.440797252687034 29.710189851112716 -28.56349752736632 91.72157060527168 -55.33975795265726 137.26833869660223 4.770832022195275e-15 1.3241718894150476e-31 3.1805546814635168e-15 4.856608693441077 -5.397663581093916 21.282183532587517 -1.06814425678811 18.260393573393245 14.303786917519048 -95.54696465980393 -36.54481475744319 -146.86607225402034 6.3611093629270335e-15 -4.770832022195275e-15 3.1805546814635168e-15
28.200000762939453 -0.800000011920929 6.400000095367432 -6.599914960896454 -2.35058469825834 89.58216543468798 2.0464012688549817 -3.305186453350267 0.05700339353572775 -2.5167456396367737e-08 -3.630575320289352e-08 1.194547759673161 112.44888418834834 -2.0849222338354347 150.93093727432336 -4.0079153229269815e-06 1.98014132791802e-06 52.60036207776014 -179.99999994702162 -13.073001168372457 -112.03367797421751 0.0 0.0 -3.1805546814635168e-15 -128.10629882710577 -17.847074828672152 -156.56559107025072 1.353009840708571e-06 -3.6901723073416746e-07 -50.8182072702992 -179.99999274263374 -34.84245983074826 175.74824993948022 -2.9817700138720468e-15 2.9817700138720468e-15 5.665363026356889e-15 -2.077083413631066 -16.186808040119345 -12.20758838142122 4.406739813232903 29.627554845580054 -28.54039872873142 92.60275298408887 -54.95200270276967 138.3576558793676 1.5902773407317584e-15 -3.1805546814635168e-15 4.4139062980501586e-32 4.902235544024239 -4.887215898163833 20.759917951251456 -1.539006397467662 18.283654815011378 14.528897561449803 -95.2526168084601 -36.74170478183178 -146.82676235755383 -6.3611093629270335e-15 7.951386703658792e-15 4.413906298050159e-31
28.5 -0.800000011920929 6.199999809265137 -6.5999153383036955 -2.3505846319232413 89.31747948000661 1.899294472314011 -3.4612342288912985 0.04896223716991258 -1.0886038974600234e-07 8.998333389952792e-08 1.7547059960374973 115.37427311829366 7.72773839598631 150.97819245195495 -1.0272052875901375e-06 2.078113164378427e-06 46.19282398869047 179.99999736354292 -17.41297901433736 -110.24538785701321 -1.3241718894150476e-31 -6.3611093629270335e-15 -2.3854160110976376e-15 -129.26012064320688 -9.786440730529808 -156.99529765271944 7.939137157769036e-07 -1.7457546195048546e-06 -45.03595512340132 179.9999938162751 -81.79877855945706 159.01721101553377 -3.1805546814635176e-15 0.0 0.0 -2.131437351708816 -15.90372293369701 -12.21251561738418 4.4158218297737 29.561585585560938 -28.344250686651783 92.05409143136801 -55.47265032671906 137.5270296283184 1.5902773407317584e-15 3.1805546814635168e-15 -1.5902773407317584e-15 4.780490852231701 -4.588454557389686 20.823772174860416 -1.6939140236039583 18.05863664455841 14.498619032390883 -94.38741726695446 -36.97032986115008 -146.17275631302508 -6.3611093629270335e-15 1.5902773407317584e-15 8.827812596100317e-32
28.700000762939453 -0.800000011920929 6.0 -7.066720626114522 -2.3482924879420555 89.04278903490933 1.5950673936243667 -4.087758524393854 0.0335609947012818 -2.4580771537778413e-07 1.223988374773287e-07 2.3245644828646324 119.30008159033817 17.307571672218128 150.6654342326433 2.456712688030169e-06 -4.4335444433746126e-06 42.05212973357743 -179.99999964378628 -17.556245599162065 -107.2404622083052 0.0 0.0 2.3854160110976376e-15 -130.9737750311 0.03572207368317207 -157.50363207344145 -4.015584808801057e-07 1.560203743547185e-06 -40.429851508761075 -179.9961698693826 -89.93276152870475 150.09562755386634 -1.2722218725854067e-14 6.3611093629270335e-15 -3.180554681463516e-15 -2.200483203518927 -16.24396042770417 -12.58797527847479 4.021815628939013 29.732024357503647 -27.99491517622406 93.73880902312135 -54.902372142026636 138.89022271095476 6.3611093629270335e-15 3.1805546814635168e-15 3.1805546814635168e-15 4.5273698913925955 -4.898368910151009 21.27226537744925 -1.3219380709267081 18.078430363643147 14.435503559196276 -94.87962591481953 -36.94749358390074 -146.5037209290595 -6.361109362927033e-15 1.5902773407317584e-15 -3.1805546814635164e-15
